PathFileType	4	(X/Y/Z)	C:\Users\WrightLab\Desktop\Jo\P5V47.trc
DataRate	CameraRate	NumFrames	NumMarkers	Units	OrigDataRate	OrigDataStartFrame	OrigNumFrames
100.00	100.00	       24	19	mm	100.00	112	       892
Frame#	Time	Headset_Front			Headset_Back			Headset_Left			Headset_Right			Left_Shoulder			Right_Shoulder			Sternum			C7			Left Elbow			Right Elbow			Left Wrist			Right Wrist			Left ASIS			Right ASIS			S2			Left Knee			Right Knee			Left Ankle			Right Ankle			
		X1	Y1	Z1	X2	Y2	Z2	X3	Y3	Z3	X4	Y4	Z4	X5	Y5	Z5	X6	Y6	Z6	X7	Y7	Z7	X8	Y8	Z8	X9	Y9	Z9	X10	Y10	Z10	X11	Y11	Z11	X12	Y12	Z12	X13	Y13	Z13	X14	Y14	Z14	X15	Y15	Z15	X16	Y16	Z16	X17	Y17	Z17	X18	Y18	Z18	X19	Y19	Z19	

112	1.110				-44.88314	924.22992	-1049.30542																						-428.98315	1153.43933	-996.32794				-286.93695	1045.88733	-830.41632	-365.27792	474.18781	-1029.89966	-319.21600	934.96326	-1000.06824				4.11606	484.21249	-1114.27380										
113	1.120				-44.88314	924.22992	-1049.30542																						-428.25128	1153.54614	-994.15277				-286.41537	1045.00220	-828.55310	-365.61896	474.51163	-1029.68579	-319.19406	934.95294	-1000.05927				4.35347	484.16830	-1114.10669										
114	1.130				-44.88314	924.22992	-1049.30542																						-426.98734	1153.20630	-992.84650				-285.46466	1044.21118	-826.67706	-365.44321	474.65411	-1029.38928	-319.31686	934.80597	-1000.02588				4.40777	484.18219	-1114.08704										
115	1.140				-44.40133	924.20380	-1049.12146																						-425.88104	1153.15405	-990.05450				-285.79367	1043.40833	-823.81525	-365.04828	474.31665	-1029.57629	-319.14590	934.28528	-999.54871				4.33548	484.07495	-1113.37097										
116	1.150				-43.98969	924.31781	-1048.87927																						-424.83554	1153.32410	-988.00287				-285.55716	1042.57861	-822.36017	-365.29608	474.79919	-1029.10645	-319.33017	934.71466	-999.86975				4.58196	484.09857	-1113.11963										
117	1.160				-43.98969	924.31781	-1048.87927																						-424.33383	1153.49634	-986.12427				-284.89648	1041.10608	-819.29584	-364.98499	474.36813	-1029.21326	-319.13760	934.23071	-999.54028				4.91386	484.29453	-1112.69360										
118	1.170				-43.98969	924.31781	-1048.87927																						-423.22198	1153.22791	-984.35162				-284.98041	1040.64478	-816.85999	-365.41446	474.67694	-1028.87292	-319.21021	934.42035	-999.65564				5.28939	484.66290	-1112.03479										
119	1.180				-43.98969	924.31781	-1048.87927																						-422.38684	1153.15979	-981.70905				-285.03104	1039.63062	-813.64014	-365.30240	474.81396	-1028.36633	-318.95648	933.93781	-999.06122				5.36699	484.68219	-1112.00659										
120	1.190				-43.98969	924.31781	-1048.87927																						-421.02917	1153.41479	-979.38477				-285.05679	1038.12048	-809.95587	-365.34683	474.90314	-1027.39636	-318.98196	934.34637	-999.86414				4.74153	484.51862	-1110.91052										
121	1.200				-44.10281	924.61633	-1048.74023																						-420.55322	1154.22351	-976.03412				-283.82590	1036.78406	-807.21234	-365.18390	474.98453	-1027.35510	-319.34143	934.02277	-1000.02435				5.15397	484.70276	-1110.36340										
122	1.210				-44.10281	924.61633	-1048.74023																						-418.73254	1153.48914	-974.04102				-284.30579	1035.30884	-803.35651	-365.19473	474.97815	-1027.35925	-319.16382	933.79083	-999.10205				4.60912	484.91132	-1109.78662										
123	1.220				-42.88200	925.34943	-1048.98584																						-416.75259	1153.58643	-971.25446				-283.95663	1034.91907	-799.95654	-365.35724	474.91840	-1026.96643	-319.46024	934.56207	-999.65839				5.07656	485.08994	-1109.18103										
124	1.230				-43.26109	925.63507	-1048.68884																						-415.26834	1153.63281	-969.06396				-284.65649	1034.10913	-796.91010	-365.67685	474.92749	-1026.97803	-319.10123	934.23975	-999.65338				5.10459	484.82510	-1108.59070										
125	1.240				-43.26109	925.63507	-1048.68884																						-413.83206	1153.82080	-966.17358				-283.31842	1033.46130	-794.14996	-365.67941	474.92599	-1026.97900	-319.37100	934.64069	-999.53204				5.29343	484.73862	-1108.43066										
126	1.250				-43.33673	925.40546	-1049.14026																						-412.86557	1154.17346	-963.68475				-283.55392	1033.43420	-791.12506	-365.70465	474.91992	-1026.98987	-319.52356	934.20801	-998.93048				5.44541	484.76883	-1108.18555										
127	1.260				-43.26109	925.63507	-1048.68884																						-411.42883	1153.52515	-961.68549				-282.65045	1032.46082	-787.72113	-365.75284	474.88458	-1026.86401	-319.56662	934.52368	-999.17450				5.53174	484.83722	-1107.24231										
128	1.270				-43.71611	925.69110	-1048.84326																						-409.68491	1154.25854	-959.69543				-281.11636	1032.35962	-785.07257	-365.59653	474.54559	-1026.65735	-318.97540	933.88062	-998.94067				5.22231	485.11813	-1106.81665										
129	1.280				-42.42144	926.17896	-1049.02441																						-408.58450	1154.27844	-957.47809				-280.72192	1031.61743	-783.17615	-366.44424	475.31619	-1026.34290	-319.28699	934.34143	-998.66418				5.24181	485.09320	-1106.80054										
130	1.290				-42.43153	926.06793	-1049.48108																						-407.64542	1154.33752	-954.68268				-280.49924	1031.25842	-779.53589	-365.71024	474.40341	-1026.20984	-318.59705	933.85199	-998.17542				5.24541	485.08429	-1106.79614										
131	1.300				-42.43153	926.06793	-1049.48108																						-407.29367	1154.85071	-953.00812				-279.74326	1030.03259	-776.97699	-365.82047	474.84763	-1026.73401	-318.81519	934.03955	-997.12097				5.06916	485.13306	-1106.00317										
132	1.310				-41.01402	926.29437	-1049.80493																						-406.61884	1155.16003	-950.68848				-279.49548	1029.54688	-774.19958	-366.26212	475.02515	-1026.20593	-318.35031	934.10065	-998.42120				5.28542	485.20261	-1105.78040										
133	1.320				-41.01402	926.29437	-1049.80493																						-405.20474	1155.21240	-949.07715				-279.18521	1029.11975	-770.94287	-365.55096	474.20517	-1025.65479	-318.62320	933.91608	-997.01355				5.55771	485.04199	-1105.68555										
134	1.330				-41.01402	926.29437	-1049.80493																						-404.10623	1155.06543	-947.03070				-278.70557	1028.17285	-768.34235	-365.69043	474.95233	-1026.45764	-318.00327	933.79663	-996.69495				5.91815	485.13409	-1106.21484										
135	1.340				-41.47370	926.82489	-1049.82642																						-402.91904	1155.26501	-944.21222				-279.48752	1027.10364	-765.55817	-365.41760	474.39926	-1025.68640	-317.74304	933.77753	-996.59326				6.29092	485.09918	-1106.62585										
